<svg width="105" height="38" viewBox="0 0 105 38" fill="none" xmlns="http://www.w3.org/2000/svg">
<path d="M85.5231 30.4751C85.1684 31.3949 84.2948 32.0395 83.1534 32.424C82.3628 32.6903 81.7484 33.1403 81.4555 33.9972C80.8562 35.751 79.2265 36.0771 77.6572 36.4624C76.8736 36.6548 76.0876 36.8471 75.3206 37.0926C73.311 37.7358 71.305 38.0359 69.2357 37.3209C68.6034 37.1024 67.9083 37.0628 67.261 36.8778C65.7682 36.4512 64.2874 35.9844 62.8009 35.5363C62.0988 35.3246 61.403 34.9743 60.6903 34.9363C58.3797 34.8132 56.3773 34.1191 54.7507 32.449C53.994 31.6721 52.5909 31.6049 51.7389 32.5657C49.972 34.5582 47.3683 34.955 45.2016 36.1646C41.5133 38.2235 37.473 38.0114 33.4388 37.6919C33.1581 37.6697 32.8183 37.6501 32.6174 37.4934C31.432 36.5692 30.0602 36.6566 28.664 36.6384C27.1643 36.6189 25.933 35.8577 24.9091 34.8441C24.2934 34.2345 23.8333 34.2867 22.982 34.5309C20.4424 35.2593 18.2276 36.6597 15.7864 37.5436C14.2867 38.0865 12.6374 38.1768 11.0553 37.6416C9.74266 37.1976 8.85401 36.2848 8.1762 35.1191C7.68477 34.274 8.62461 32.5313 9.57227 31.8582C10.3369 31.3152 11.277 31.0132 12.1094 30.5528C12.6519 30.2528 13.1897 29.9118 13.6437 29.4992C14.6337 28.5996 15.6604 27.8208 17.1522 27.8755C16.6438 26.8099 16.1079 25.8263 15.7029 24.7939C15.375 23.9579 14.9299 23.0329 15.0257 22.201C15.1909 20.7658 14.81 19.472 14.449 18.1561C14.3759 17.8895 13.9167 17.581 13.6037 17.5434C11.9517 17.3451 10.2919 17.1795 8.62984 17.1018C7.79681 17.0628 6.94925 17.205 6.11553 17.3168C3.95447 17.6068 1.3145 16.4087 0.45952 14.7272C-0.314808 13.2043 0.0362615 11.6283 0.445176 10.1458C0.75447 9.02439 2.97146 8.28365 4.35865 8.69771C5.60934 9.07104 6.72698 9.14232 8.06383 8.77044C9.15397 8.46719 10.5141 8.85832 11.6966 9.15835C13.1557 9.52855 14.555 10.1232 15.9803 10.621C16.185 10.3914 16.3285 10.2811 16.4049 10.137C17.101 8.82394 18.2425 8.09695 19.6157 7.53302C20.3452 7.23343 20.9084 6.54215 21.5367 6.01634C22.1503 5.50279 22.6696 4.72116 23.3745 4.50519C24.9102 4.03471 26.3464 3.45071 27.7377 2.65403C28.4294 2.25789 29.3601 2.23187 30.1932 2.10389C31.3124 1.93195 32.4488 1.863 33.5655 1.67881C35.5407 1.35305 37.4376 1.31801 39.3014 2.27539C39.9826 2.62531 40.8845 2.60141 41.6926 2.67323C42.8977 2.78031 43.904 3.17155 44.8873 3.93098C45.8007 4.63647 47.0074 4.97418 48.0655 5.51038C48.6871 5.8254 49.2421 6.27569 49.8799 6.54713C50.4605 6.79424 51.1616 7.11114 51.7236 6.99636C53.3207 6.67376 54.8561 6.10795 56.2735 5.31962C57.5589 4.6067 59.1487 4.42388 60.5921 3.97068C61.3839 3.72209 62.1422 3.37291 62.9314 3.11522C63.8572 2.81292 64.7842 2.46537 65.7401 2.31171C66.856 2.13234 68.0268 2.25551 69.1324 2.0427C70.9616 1.69061 72.5466 2.04206 74.13 2.98288C75.0756 3.54473 76.2287 3.77176 77.2833 4.16251C78.3092 4.54263 79.3714 4.85998 80.3373 5.35424C81.116 5.75269 81.7239 5.6732 82.4285 5.26136C83.6092 4.57118 84.8258 3.93946 86.027 3.28278C87.2673 2.60479 88.4879 1.8892 89.7523 1.2573C91.4283 0.419759 93.1077 -0.555944 95.0929 0.385473C95.4086 0.535197 95.744 0.711422 95.9715 0.961031C97.1709 2.27674 97.2446 3.96828 97.2156 5.55303C97.1942 6.72048 95.1365 8.01588 93.812 8.15655C93.3565 8.20493 92.8976 8.4297 92.4895 8.65774C91.4268 9.25156 90.3799 9.8722 89.349 10.5197C88.642 10.959 87.961 11.4371 87.3093 11.9517C87.1677 12.0644 87.1355 12.4429 87.205 12.6506C87.5906 13.802 87.9685 14.9611 88.4522 16.075C89.1915 17.7776 89.2953 19.434 88.3675 21.0951C88.2854 21.2421 88.2576 21.4181 88.1561 21.7292C90.5242 21.8681 92.621 23.2867 95.0649 22.5565C95.5045 22.4251 96.0601 22.5549 96.5363 22.6679C98.1923 23.0609 99.833 23.5153 101.487 23.9169C103.573 24.4234 104.676 26.4994 104.477 28.4014C104.383 29.2976 104.143 30.1791 103.973 31.068C103.831 31.8114 103.434 32.3027 102.605 32.2446C101.796 32.1879 100.995 32.0181 100.185 31.9682C98.9092 31.8895 97.6213 31.939 96.3532 31.803C95.3106 31.6911 94.295 31.3583 93.2571 31.181C92.5789 31.0652 91.8819 31.0552 91.1938 30.9929C89.3651 30.8274 87.5367 30.6592 85.5231 30.4751ZM26.0091 11.7696C26.2816 11.9597 26.4495 12.1492 26.6574 12.2112C30.3202 13.3024 33.9867 14.3816 37.6569 15.4489C38.3282 15.643 38.8545 15.4099 39.3547 14.8689C39.8375 14.3467 40.4878 13.9529 41.1123 13.5786C41.9744 13.0617 42.8814 12.616 43.7692 12.1398C43.7558 12.0286 43.7424 11.9174 43.7289 11.8061C43.2793 11.6741 42.8337 11.5267 42.3791 11.4138C41.8319 11.2779 41.2693 11.1977 40.7268 11.0472C38.79 10.5096 36.8659 9.92672 34.9205 9.42154C34.4648 9.3032 33.9363 9.37191 33.4551 9.44303C32.3994 9.59905 31.3301 10.0439 30.3071 9.94973C28.5304 9.78622 27.3477 10.6516 26.0091 11.7696ZM77.4715 28.5798C77.5037 28.4593 77.536 28.3388 77.5683 28.2183C76.4618 27.8975 75.3739 27.4216 74.2444 27.2929C72.5913 27.1044 71.1043 26.7157 69.9432 25.4868C69.8241 25.3589 69.6801 25.2553 69.5196 25.1822C68.1642 24.5946 66.814 23.9923 65.4339 23.4649C65.2082 23.3786 64.6256 23.5795 64.5785 23.7469C64.2535 24.9022 63.4393 25.5043 62.3822 25.9788C61.7702 26.2535 61.2633 26.7512 60.6491 27.1916C66.2526 29.9859 71.8148 29.9496 77.4715 28.5798H77.4715ZM98.6509 30.8797L98.9273 30.4194C96.4128 28.2876 93.9219 26.1284 91.3695 24.0407C90.6144 23.4231 89.6814 23.0236 88.6517 23.2496C88.4854 24.1214 88.3319 24.9261 88.1951 25.6431C91.0722 28.6069 93.8802 31.7166 98.6509 30.8797V30.8797ZM67.988 14.9652C70.6796 15.1311 73.3276 15.4071 75.9769 15.4195C77.8874 15.4294 79.7934 15.2373 81.6616 14.8466C82.9913 14.5657 83.3594 13.7233 83.3092 12.5598C81.1413 12.5598 78.9747 12.4743 76.8188 12.5849C74.8306 12.6841 72.851 12.9076 70.892 13.2541C69.7027 13.4666 68.4881 13.8949 67.9881 14.9652L67.988 14.9652ZM44.318 34.9548C41.5741 33.525 38.9057 32.1634 36.2677 30.7478C34.912 30.0203 33.6406 30.1298 32.4448 30.7947C33.7003 32.2156 34.9431 33.6327 36.2017 35.0362C36.4134 35.2716 36.6611 35.4736 36.9361 35.6349C38.7934 36.7161 42.5243 36.3998 44.318 34.9548ZM50.0779 31.9678C48.2951 31.4749 46.5314 30.9227 44.7344 30.5081C42.8668 30.0773 40.9771 29.7051 39.0763 29.459C38.2873 29.3569 37.3019 29.2083 36.6134 30.2055C38.7054 31.2668 40.7726 32.1967 42.7118 33.3342C44.5016 34.384 46.26 34.3534 48.132 33.7518C49.0819 33.4465 49.9344 33.0717 50.0779 31.9678V31.9678ZM74.7038 9.21252C73.5807 8.40877 72.4428 7.58726 71.2971 6.77609C69.5778 5.55876 68.0142 4.11036 65.9096 3.4761C64.3042 2.9923 63.0606 3.45677 62.5105 4.86387C62.9608 5.11362 63.4211 5.36015 63.8728 5.62099C66.1036 6.90924 68.3327 8.20031 70.5601 9.4942C72.0727 10.378 73.462 10.0751 74.7038 9.21252ZM66.0224 16.5884C67.6544 19.3965 69.0407 22.0437 70.6917 24.5232C71.6672 25.9883 73.3704 26.4016 75.4885 26.3489C73.8552 23.6574 72.4939 21.0965 70.8089 18.7573C69.8068 17.366 68.0771 16.8078 66.0224 16.5884ZM9.33565 33.855C11.8499 34.0603 14.2984 34.3064 16.7533 34.4469C18.9168 34.5707 21.0413 34.3134 22.9842 33.2809C23.41 33.0547 23.7495 32.674 24.3726 32.1652C23.8352 32.1292 23.6671 32.1192 23.4992 32.1065C21.403 31.9479 19.3077 31.7769 17.2103 31.6343C15.7947 31.538 14.3761 31.4186 12.9592 31.4229C11.1144 31.4284 9.8546 32.3088 9.33565 33.855ZM78.8543 9.142C80.502 9.37639 82.049 9.74626 83.6035 9.77932C85.5107 9.81987 87.4396 9.68299 89.3286 9.41662C90.3059 9.27881 91.1111 8.57845 91.68 7.58077C89.7469 7.2813 87.9933 6.90409 86.2201 6.7657C84.5573 6.63444 82.8858 6.64961 81.2258 6.81102C79.9846 6.93391 79.0924 7.70147 78.8543 9.142ZM46.5566 20.1005C47.9867 20.9095 49.3956 21.7173 50.8188 22.5005C51.0445 22.6247 51.394 22.7669 51.5854 22.6827C53.5725 21.8081 55.5389 20.8887 57.7655 19.8648L51.3023 17.249L46.5566 20.1005ZM67.0954 30.5483C67.8364 31.1791 68.3717 31.6914 68.9654 32.1281C70.0981 32.9613 71.184 33.9061 72.4353 34.5227C74.2444 35.4142 76.2153 35.8178 78.2479 35.1824C79.1804 34.8909 80.0197 34.4666 80.2674 33.2522C78.0327 33.4681 76.0635 32.9747 74.2495 31.7598C72.1233 30.3357 69.6626 30.5772 67.0954 30.5483ZM42.3611 29.2004C45.1904 29.8791 47.9361 30.5785 50.7042 31.1795C51.6537 31.3857 52.6581 31.2987 53.331 30.4275C53.836 29.7737 54.2893 29.0819 54.9415 28.158C51.7312 27.9398 48.7991 27.6642 45.8611 27.5762C44.5829 27.5379 43.2101 27.7097 42.3611 29.2004L42.3611 29.2004ZM55.5364 7.03889C57.4021 7.63407 59.0362 8.20726 60.7021 8.67171C62.2648 9.10737 63.8458 9.53799 65.4494 9.75189C66.2261 9.85549 67.0732 9.45762 67.8884 9.28679C67.888 9.1581 67.8876 9.02942 67.8872 8.90073C66.0725 7.82151 64.303 6.65954 62.4303 5.68664C60.6045 4.73816 58.6798 5.06624 56.8663 5.82316C56.3414 6.0422 55.9754 6.62345 55.5364 7.03887L55.5364 7.03889ZM17.0665 13.1958C17.9778 12.8509 18.8085 12.4526 19.6857 12.2247C20.9182 11.9044 22.2012 11.7687 23.4333 11.4474C24.8418 11.0802 26.361 10.8053 27.137 8.93665C25.3628 8.58514 23.7307 8.17941 22.0728 7.95175C19.2765 7.56776 16.448 10.5158 17.0665 13.1958ZM15.8943 19.6197C16.4585 18.9538 16.7326 18.4062 17.182 18.1385C19.2061 16.9331 21.2952 15.8317 23.3269 14.6379C23.9736 14.258 24.5622 13.751 25.0779 13.2116C25.2422 13.0399 25.2057 12.4885 25.0401 12.2708C24.8837 12.0651 24.4131 11.9478 24.1218 12.0019C22.6546 12.2746 21.2139 12.703 19.7394 12.9141C17.2157 13.2754 15.7122 15.8474 15.577 18.0606C15.5496 18.5081 15.7544 18.9691 15.8943 19.6197ZM32.9975 2.8871C35.0055 4.84422 36.9422 6.82617 38.993 8.68842C39.9372 9.54571 41.0851 10.2238 42.6177 10.0186C41.6256 7.55597 40.2673 5.4465 38.4859 3.62163C37.0519 2.1526 34.9093 1.89302 32.9975 2.8871ZM85.8214 12.6709C84.9676 12.5871 84.5744 13.0457 84.164 13.6316C83.671 14.3356 83.1542 15.1737 82.4285 15.5351C81.5078 15.9935 81.1763 16.5714 81.0173 17.4779C80.7044 19.263 80.6064 21.0238 81.1021 22.8406C83.9809 20.7264 86.7591 15.8015 85.8214 12.6709ZM19.1952 27.9553C19.1987 28.0728 19.2023 28.1904 19.2059 28.308C22.3952 28.3603 25.5871 28.5036 28.7723 28.4146C29.8584 28.3843 31.0561 27.9752 31.6984 26.7836C27.2478 25.0527 23.0274 24.6152 19.1952 27.9553ZM24.3491 15.3012L23.9971 14.9021C22.2316 15.835 20.4434 16.7297 18.7069 17.7114C16.9967 18.6781 16.325 20.3186 16.0355 22.1171C15.9716 22.514 16.1076 23.0732 16.3777 23.3396C16.5373 23.497 17.2476 23.3522 17.5255 23.1267C18.6891 22.1823 19.9152 21.2625 20.8697 20.1336C22.1498 18.6196 23.2001 16.9207 24.3491 15.3012ZM35.4477 22.0192C33.8944 20.0798 32.5087 18.231 30.9911 16.4916C29.7461 15.0645 28.289 13.849 26.2937 13.3807C26.0766 13.7906 25.8332 14.1406 25.7098 14.527C25.6434 14.7352 25.7007 15.0734 25.8426 15.2371C26.6442 16.1619 27.4931 17.0475 28.3171 17.954C30.2038 20.0298 32.3512 21.667 35.4477 22.0192ZM60.8531 12.2575C62.3449 13.0822 63.9561 13.8227 65.3796 14.8184C66.185 15.3817 66.5492 15.1996 67.1664 14.6819C68.237 13.784 69.3915 12.9815 70.5088 12.1365C70.8782 11.8571 71.2416 11.57 71.8616 11.0898C70.5923 10.7577 69.6047 10.2144 68.6901 10.3134C65.9556 10.6096 63.203 10.9798 60.8531 12.2575ZM30.4384 29.4018C31.0784 29.4018 31.4548 29.4188 31.8291 29.3991C35.0195 29.2316 38.0806 28.0604 41.3164 28.2317C41.458 28.2326 41.5962 28.1896 41.711 28.1087C42.3494 27.655 42.9767 27.1865 43.6192 26.7145C42.2356 26.3216 40.8823 25.9108 39.5124 25.5622C39.0198 25.4369 38.4575 25.3327 37.978 25.4385C35.1929 26.0527 32.8497 27.5112 30.4384 29.4018ZM14.6389 30.359C14.6421 30.5067 14.6452 30.6544 14.6483 30.8021C17.6553 30.9803 20.6612 31.2653 23.6698 31.296C25.416 31.3138 27.261 31.1423 28.5424 29.1931C27.6783 29.1931 26.9966 29.2113 26.3162 29.1899C23.4687 29.1007 20.6216 28.9942 17.7741 28.9051C16.4717 28.8643 15.4644 29.437 14.6389 30.359ZM92.8933 24.0856C95.083 26.0635 97.1959 28.0181 99.3689 29.907C100.032 30.476 100.783 30.9389 101.594 31.2786C101.973 31.4377 102.739 31.3419 102.971 31.0703C103.361 30.6139 103.262 30.0251 102.666 29.5499C101.732 28.8041 100.919 27.9132 99.9878 27.1617C98.5199 25.9764 97.0466 24.7853 95.4769 23.7372C94.6765 23.2027 93.7083 23.291 92.8933 24.0856ZM53.5859 13.9293C53.5363 13.8331 53.4867 13.7369 53.4371 13.6408C53.3397 13.6062 53.245 13.5553 53.1446 13.5396C49.7638 13.0099 46.3772 13.2448 43.0257 13.6875C41.8336 13.845 40.3865 14.1884 39.998 16.0918C43.7402 15.8137 47.3562 15.6212 50.9486 15.2252C51.866 15.1241 52.7088 14.3787 53.5859 13.9293ZM1.86976 10.1875C2.03842 10.4708 2.11193 10.7304 2.28655 10.8669C4.33902 12.4718 6.35684 14.1257 8.48981 15.6231C9.68249 16.4603 11.1793 16.4693 12.7985 16.556C11.8142 15.679 10.9511 15.005 10.2089 14.222C9.46074 13.4326 8.84028 12.5291 8.15008 11.6863C6.93155 10.1984 3.86512 9.43141 1.86976 10.1875ZM56.6435 13.7634C57.8722 15.7312 58.9501 17.6569 60.2408 19.4358C60.8371 20.2577 61.7981 20.8704 62.6929 21.4263C63.1647 21.7195 63.8495 21.6866 64.7263 21.8569C63.1595 19.0531 61.7643 16.566 60.3797 14.0733C59.8901 13.1918 59.3111 12.7411 58.2557 13.3594C57.8489 13.5978 57.3016 13.608 56.6435 13.7634ZM36.1567 16.7568C36.274 16.9707 36.3497 17.1191 36.4347 17.2623C37.5382 19.1196 38.6601 20.9667 39.7429 22.8354C40.9035 24.8385 42.6301 25.9111 44.6432 25.8148C43.476 23.1425 41.9588 20.6757 40.0225 18.4791C39.0597 17.387 37.8808 16.5553 36.1567 16.7568ZM86.5875 15.8928C86.525 16.022 86.462 16.1366 86.4127 16.2565C85.5097 18.4521 84.5844 20.6236 82.7788 22.3179C82.0379 23.0131 81.3988 23.8202 80.774 24.6213C80.3383 25.18 80.0058 25.8153 79.6273 26.4164L79.868 26.6223C81.4795 25.5874 83.0908 24.5522 84.7018 23.5167C86.1024 22.6121 87.1941 21.4495 87.7901 19.8944C88.3647 18.3949 87.9287 16.9243 86.5875 15.8928ZM26.6744 4.21253C27.694 4.59797 28.6501 4.88144 29.5328 5.30911C31.4413 6.23385 33.2893 7.27894 35.2092 8.17938C36.0442 8.57102 36.995 8.72762 37.8933 8.99096C37.9243 8.8898 37.9553 8.78864 37.9862 8.68748C37.2874 7.91193 36.6221 7.10432 35.8826 6.36763C34.4348 4.92542 33.2159 3.19299 30.853 2.96703C29.2329 2.81212 27.8396 3.08703 26.6744 4.21253ZM22.3643 7.17523C26.0193 7.81963 29.4167 10.0328 33.3427 8.01143C31.6362 7.12265 30.0822 6.21456 28.443 5.48973C27.041 4.86975 25.5188 4.852 24.0654 5.40646C23.2677 5.71074 22.3927 6.04279 22.3642 7.17524L22.3643 7.17523ZM27.7756 31.7707C30.1832 33.8672 31.8764 37.0398 36.0616 36.6061C34.5703 33.6568 32.4274 31.5209 29.7836 29.901L27.7756 31.7707ZM62.9532 29.4224C62.9109 29.5092 62.8687 29.596 62.8264 29.6827C63.7828 30.8396 64.6548 32.0774 65.7182 33.1317C66.9027 34.3061 68.182 35.4247 69.5663 36.3623C70.9481 37.2982 73.24 36.994 74.261 36.0465C73.1097 35.5218 71.7968 35.1496 70.7664 34.4053C68.8104 32.9924 67.063 31.3032 64.8266 30.2721C64.204 29.9851 63.5778 29.7054 62.9532 29.4224H62.9532ZM78.13 27.1784C79.2854 25.7605 79.0265 24.476 78.1207 23.2014C77.8582 22.8321 77.683 22.4049 77.453 22.0126C76.4606 20.3201 74.0415 19.1983 72.3699 19.6349C73.4666 21.57 74.5653 23.5076 75.6661 25.4478C76.2194 26.4188 77.0874 26.959 78.13 27.1784H78.13ZM62.9536 10.3408C61.7902 9.8544 60.7565 9.39864 59.7046 8.98719C57.1006 7.96864 54.4126 7.62768 51.6436 8.15877C50.7792 8.32457 50.2005 8.8163 50.1278 9.68977C53.1618 10.097 56.1179 10.5431 59.0878 10.8692C60.3404 11.0066 61.6598 11.1663 62.9536 10.3408ZM14.5453 16.3443C14.769 15.9971 15.0509 15.6066 15.2768 15.1874C15.3783 14.9989 15.4682 14.711 15.3929 14.5392C14.339 12.1334 12.6023 10.4461 9.91796 9.88951C9.21485 9.74373 8.45298 9.86754 7.71809 9.86754C9.91609 12.337 11.2662 15.3592 14.5453 16.3443ZM84.6091 28.8927C82.7592 29.1677 80.9122 29.4628 79.0587 29.7121C77.1933 29.9631 75.3215 30.1685 73.4525 30.3939L73.3768 30.7575C74.9506 31.3339 76.492 32.027 78.1073 32.4545C79.7706 32.8947 81.3291 32.2503 82.8018 31.5064C84.3628 30.718 84.7808 30.0687 84.6091 28.8927V28.8927ZM61.333 13.9895L61.0152 14.2591C62.7487 16.9157 64.4167 19.6164 66.2496 22.2062C66.934 23.1732 68.0776 23.7433 69.5352 24.0152C67.9699 21.3507 66.546 18.8724 65.0649 16.4271C64.2275 15.0446 62.9557 14.2314 61.333 13.9895ZM72.4287 12.1624C75.3896 12.0261 78.1223 11.9056 80.8543 11.7727C82.4196 11.6965 83.9884 11.6431 85.5461 11.4887C86.059 11.4379 86.8616 11.4882 86.7764 10.5604C85.4828 10.4751 84.2062 10.3916 82.9298 10.3067C80.7011 10.1583 78.4719 9.8893 76.2443 9.90135C74.696 9.90974 73.307 10.5502 72.4287 12.1624V12.1624ZM46.791 9.88887C45.6147 7.84877 44.6484 5.70812 42.8249 4.14704C41.8752 3.33401 40.6887 3.25614 39.2684 3.45191C40.0282 4.49385 40.6943 5.33362 41.2777 6.22489C42.1131 7.50128 42.8514 8.83927 43.7155 10.0957C43.9221 10.3961 44.4928 10.6714 44.8421 10.6187C45.48 10.5223 46.0777 10.1723 46.791 9.88887V9.88887ZM38.9741 23.8046C37.7257 19.2076 33.6829 14.398 30.0365 14.5213C31.1171 15.7705 32.2075 17.042 33.3103 18.3031C34.5783 19.7532 35.8181 21.2299 37.1522 22.62C37.6378 23.126 38.3599 23.416 38.9741 23.8046V23.8046ZM78.7672 28.4033L78.9495 28.7224C79.8665 28.7224 80.7866 28.7706 81.6997 28.7127C83.8082 28.5789 85.5225 27.6827 86.756 25.9982C87.5064 24.9734 87.4866 23.6851 86.8024 22.9009C84.1205 24.7374 81.4421 26.5715 78.7672 28.4033ZM59.0963 12.2099L59.0187 11.7102C57.2527 11.4982 55.4912 11.2342 53.7195 11.0877C51.6277 10.9147 49.5267 10.8493 47.4305 10.725C46.521 10.671 45.1716 11.7092 44.9929 12.5884C46.4038 12.5884 47.8237 12.5584 49.2418 12.5951C51.598 12.656 53.9536 12.8277 56.3085 12.8117C57.2391 12.8055 58.1671 12.4218 59.0963 12.2099V12.2099ZM77.4107 8.28704C75.9323 6.75483 74.543 5.19055 73.011 3.77288C72.0652 2.89757 70.7604 2.76375 69.4851 2.92044C69.1819 2.9577 68.7542 3.21275 68.6749 3.4574C68.6006 3.68654 68.8306 4.14119 69.067 4.31345C70.8657 5.62433 72.6777 6.92047 74.5313 8.15591C75.3177 8.67999 76.21 9.0821 77.4107 8.28704V8.28704ZM24.5709 24.7481C26.9098 24.5223 29.1162 24.8862 31.137 25.7899C32.7527 26.5125 33.9833 26.1735 35.2994 25.2027C33.3301 24.0669 31.3665 23.1266 29.1246 22.8408C27.5109 22.6351 24.9234 23.2344 24.5709 24.7481ZM58.9275 28.6588C60.0449 30.4475 60.7376 32.3841 62.2892 33.8026C63.6499 35.0466 65.337 35.5971 67.2372 35.8127C65.5449 33.8895 63.9571 32.0213 62.2925 30.2207C61.481 29.3429 60.6345 28.3892 58.9275 28.6588V28.6588ZM62.4142 25.0874C62.4818 24.9616 62.5494 24.8357 62.617 24.7099C62.2956 24.5175 61.9947 24.2095 61.6496 24.1513C59.1746 23.7343 56.6849 23.3998 54.2125 22.9697C53.2699 22.8058 51.5996 23.8269 51.5394 24.7697C55.1454 25.6138 58.7717 25.6495 62.4142 25.0874V25.0874ZM95.0579 7.13654C95.0495 7.04228 95.0411 6.94802 95.0327 6.85375C93.2805 6.11151 91.5387 5.34465 89.7711 4.63903C89.0548 4.35309 88.2941 4.08172 87.5335 4.01147C85.7998 3.85131 84.322 4.65282 83.9369 5.73564C86.9332 6.25572 89.9414 6.80901 92.9633 7.27821C93.6367 7.38279 94.3584 7.19157 95.0579 7.13654V7.13654ZM68.818 15.5863C68.8199 15.6938 68.8218 15.8013 68.8237 15.9089C69.7435 16.5458 70.682 17.1587 71.5788 17.8251C73.0095 18.8882 74.5159 18.773 76.0587 18.1567C76.9626 17.7956 77.727 17.2958 77.7304 16.1482L68.818 15.5863ZM61.0966 33.7205C60.526 32.73 60.0742 31.8298 59.511 31.0017C58.9844 30.2274 58.3492 29.5218 57.744 28.8002C57.2664 28.2309 56.7093 28.4582 56.3838 28.8841C55.87 29.5563 55.5019 30.3344 55.0474 31.1098C56.5859 32.8907 58.4036 34.072 61.0966 33.7205ZM39.4723 16.3155C41.6567 18.6421 44.2441 18.5026 46.7524 18.4455C48.1921 18.4127 49.5316 17.1961 49.5888 16.3155H39.4723ZM89.0667 3.66214C91.2188 4.0254 93.101 4.82366 94.8686 5.95301C95.1057 6.10452 95.8378 5.63581 96.2492 5.33519C96.3624 5.25245 96.2495 4.6511 96.0616 4.43708C94.8876 3.10005 93.2044 2.7274 91.5742 2.21945C90.0416 1.74189 89.4818 1.9821 89.0667 3.66214V3.66214ZM47.3002 26.5725C48.0475 26.6748 48.538 26.7679 49.033 26.8055C51.9752 27.0286 54.9161 27.2891 57.863 27.4131C58.4869 27.4393 59.1335 26.9507 59.7696 26.6993C56.984 26.2128 54.3098 26.0571 51.6587 25.7252C50.1528 25.5367 48.7955 25.6471 47.3002 26.5725ZM1.31474 10.9926C-0.110867 15.1552 3.59467 16.481 7.0699 15.5533L1.31474 10.9926ZM22.0675 19.8828C21.958 19.9747 21.838 20.0481 21.754 20.1499C20.5688 21.586 19.3136 22.9235 17.6724 23.9205C17.327 24.1303 17.4354 25.0824 17.4102 25.6954C17.4084 25.7395 18.1317 25.9675 18.3418 25.838C19.3952 25.189 20.4073 24.4716 21.4013 23.7362C22.7879 22.7103 23.0077 21.4014 22.0675 19.8828ZM58.9913 18.8207C57.9176 17.1362 56.8756 15.5013 55.7959 13.8074L53.3418 15.0949C54.4143 17.4358 56.7318 18.9838 58.9913 18.8207ZM23.4982 18.9431C23.4716 19.0369 23.2879 19.3339 23.3314 19.5949C23.4842 20.5115 23.669 21.4296 23.95 22.3145C24.0178 22.5281 24.5375 22.7827 24.7877 22.7315C25.6513 22.5548 26.515 22.314 27.3261 21.9772C28.04 21.6807 28.6833 21.2228 29.5155 20.7458L23.4982 18.9431ZM45.799 26.1647L47.0507 25.2692C46.217 22.2736 43.6281 19.4274 41.9585 19.5531C43.2137 21.7139 44.4827 23.8986 45.799 26.1647ZM103.51 29.3239C103.993 26.0975 101.006 23.5769 98.1623 24.5174C99.9001 26.0794 101.621 27.6258 103.51 29.3239ZM16.866 35.254L9.16694 34.5959C10.6764 37.2546 14.5738 37.4849 16.866 35.254ZM30.3499 35.3148C29.5461 34.4959 28.8555 33.7518 28.1205 33.052C26.6716 31.6721 26.091 31.7525 25.0642 33.4247C26.3174 35.1678 28.2683 35.9126 30.3499 35.3148L30.3499 35.3148ZM63.7529 22.6502C61.085 21.4583 58.6153 20.9127 56.0665 22.1524C58.3124 23.0034 60.6088 23.4938 63.0093 23.2581C63.261 23.2333 63.4791 22.8835 63.7529 22.6502ZM91.0153 29.6567C89.9411 28.523 88.9343 27.4605 87.9157 26.3854C87.182 27.2762 86.6149 27.9649 86.0483 28.6528C87.9793 29.7139 89.9821 30.1466 91.0153 29.6567L91.0153 29.6567ZM46.2458 21.8656C46.6924 22.7777 47.0739 23.6379 47.5385 24.4531C47.6682 24.6807 48.0812 24.9453 48.2991 24.8993C48.9979 24.7519 49.6663 24.467 50.3631 24.2295C49.3224 22.2354 47.6214 21.2812 46.2458 21.8656L46.2458 21.8656ZM79.6396 20.6309C79.7524 19.1864 79.8531 17.8969 79.9539 16.6074L79.6461 16.4136C78.7104 17.4664 77.7747 18.5191 76.6783 19.7528L79.6396 20.6309ZM29.9418 22.0481C31.6801 22.8098 33.2988 23.5797 34.9688 24.2231C35.7127 24.5097 36.5598 24.5418 37.36 24.6893C37.4246 24.5154 37.4891 24.3415 37.5537 24.1675C36.8448 23.7871 36.175 23.2893 35.4191 23.0503C33.7858 22.534 32.1084 22.1505 30.2543 21.6613L29.9418 22.0481ZM75.2714 4.82144L78.2057 8.33153C78.6015 7.38386 79.2686 6.28533 79.0879 6.13103C78.3862 5.53169 77.4273 5.20415 76.537 4.83855C76.2677 4.72801 75.9105 4.82144 75.2714 4.82144ZM47.5195 9.66506L49.2761 8.19464C48.6881 6.9765 46.891 6.00058 45.5018 6.40598L47.5195 9.66506ZM28.07 19.1998L28.2341 18.9444L25.3354 15.4335L24.35 17.6139C25.5061 18.4601 26.6542 19.1489 28.07 19.1998ZM91.5222 1.34794L96.1833 3.32253C95.4738 1.17541 93.4104 0.0968559 91.5222 1.34794ZM18.6935 26.3923C18.7514 26.482 18.8093 26.5716 18.8672 26.6612C20.1198 25.9991 21.3797 25.3494 22.6174 24.6617C22.81 24.5547 22.9522 24.2892 23.0219 24.0683C23.0722 23.9085 23.0114 23.6669 22.9069 23.5288C22.8509 23.4547 22.5471 23.4573 22.4419 23.5358C21.183 24.4759 19.9404 25.4368 18.6935 26.3923ZM79.5317 24.3105C80.2666 23.3051 79.5948 22.5494 79.4007 21.8178C79.3277 21.5428 78.5926 21.4348 78.1594 21.2507C78.0976 21.3435 78.0359 21.4363 77.9742 21.5291C78.4626 22.4013 78.951 23.2735 79.5317 24.3105ZM14.1139 11.3508L15.6354 13.3851C15.7495 11.5807 15.7277 11.5515 14.1139 11.3508Z" fill="black"/>
</svg>
